<mxfile host="app.diagrams.net" modified="2022-05-12T08:29:02.877Z" agent="5.0 (Windows)" etag="fNgPEp1V3N0YKrr3YNgU" version="18.0.3" type="github">
  <diagram id="wVtlZo8cVKPB0jHUhsLX" name="Page-1">
    <mxGraphModel dx="1007" dy="530" grid="1" gridSize="10" guides="1" tooltips="1" connect="1" arrows="1" fold="1" page="1" pageScale="1" pageWidth="350" pageHeight="350" math="0" shadow="0">
      <root>
        <mxCell id="0" />
        <mxCell id="1" parent="0" />
        <mxCell id="JLO5sq69580xviN0e8U7-1" value="" style="endArrow=classic;html=1;rounded=0;" parent="1" edge="1">
          <mxGeometry width="50" height="50" relative="1" as="geometry">
            <mxPoint x="40" y="310" as="sourcePoint" />
            <mxPoint x="40" y="52" as="targetPoint" />
          </mxGeometry>
        </mxCell>
        <mxCell id="JLO5sq69580xviN0e8U7-2" value="" style="endArrow=classic;html=1;rounded=0;" parent="1" edge="1">
          <mxGeometry width="50" height="50" relative="1" as="geometry">
            <mxPoint x="40" y="310" as="sourcePoint" />
            <mxPoint x="320" y="310" as="targetPoint" />
          </mxGeometry>
        </mxCell>
        <mxCell id="JLO5sq69580xviN0e8U7-3" value="h" style="text;html=1;strokeColor=none;fillColor=none;align=center;verticalAlign=middle;whiteSpace=wrap;rounded=0;" parent="1" vertex="1">
          <mxGeometry x="290" y="310" width="20" height="15" as="geometry" />
        </mxCell>
        <mxCell id="JLO5sq69580xviN0e8U7-4" value="p" style="text;html=1;strokeColor=none;fillColor=none;align=center;verticalAlign=middle;whiteSpace=wrap;rounded=0;" parent="1" vertex="1">
          <mxGeometry x="10" y="62" width="20" height="20" as="geometry" />
        </mxCell>
        <mxCell id="JLO5sq69580xviN0e8U7-7" value="" style="curved=1;endArrow=none;html=1;rounded=0;endFill=0;" parent="1" edge="1">
          <mxGeometry width="50" height="50" relative="1" as="geometry">
            <mxPoint x="60" y="310" as="sourcePoint" />
            <mxPoint x="230" y="310" as="targetPoint" />
            <Array as="points">
              <mxPoint x="100" y="191" />
              <mxPoint x="150" y="91" />
              <mxPoint x="260" y="61" />
              <mxPoint x="270" y="181" />
            </Array>
          </mxGeometry>
        </mxCell>
        <mxCell id="JLO5sq69580xviN0e8U7-13" value="" style="endArrow=oval;html=1;rounded=0;curved=1;endFill=1;startArrow=oval;startFill=1;endSize=4;startSize=4;" parent="1" edge="1">
          <mxGeometry width="50" height="50" relative="1" as="geometry">
            <mxPoint x="110" y="173" as="sourcePoint" />
            <mxPoint x="300" y="173" as="targetPoint" />
          </mxGeometry>
        </mxCell>
        <mxCell id="JLO5sq69580xviN0e8U7-14" value="" style="endArrow=oval;html=1;rounded=0;curved=1;endFill=1;startArrow=oval;startFill=1;endSize=4;startSize=4;" parent="1" edge="1">
          <mxGeometry width="50" height="50" relative="1" as="geometry">
            <mxPoint x="110" y="173" as="sourcePoint" />
            <mxPoint x="110" y="233" as="targetPoint" />
          </mxGeometry>
        </mxCell>
        <mxCell id="JLO5sq69580xviN0e8U7-15" value="" style="endArrow=oval;html=1;rounded=0;curved=1;endFill=1;startArrow=oval;startFill=1;endSize=4;startSize=4;entryX=0.15;entryY=0.35;entryDx=0;entryDy=0;entryPerimeter=0;" parent="1" edge="1">
          <mxGeometry width="50" height="50" relative="1" as="geometry">
            <mxPoint x="110" y="233" as="sourcePoint" />
            <mxPoint x="260" y="233" as="targetPoint" />
          </mxGeometry>
        </mxCell>
        <mxCell id="JLO5sq69580xviN0e8U7-16" value="" style="endArrow=oval;html=1;rounded=0;curved=1;endFill=1;startArrow=oval;startFill=1;endSize=4;startSize=4;" parent="1" edge="1">
          <mxGeometry width="50" height="50" relative="1" as="geometry">
            <mxPoint x="300" y="173" as="sourcePoint" />
            <mxPoint x="260" y="233" as="targetPoint" />
          </mxGeometry>
        </mxCell>
        <mxCell id="JLO5sq69580xviN0e8U7-22" value="" style="endArrow=classic;html=1;rounded=0;endSize=5;strokeWidth=0;" parent="1" edge="1">
          <mxGeometry width="50" height="50" relative="1" as="geometry">
            <mxPoint x="110" y="181.0000000000001" as="sourcePoint" />
            <mxPoint x="110" y="202" as="targetPoint" />
          </mxGeometry>
        </mxCell>
        <mxCell id="JLO5sq69580xviN0e8U7-23" value="" style="endArrow=classic;html=1;rounded=0;endSize=5;strokeWidth=0;" parent="1" edge="1">
          <mxGeometry width="50" height="50" relative="1" as="geometry">
            <mxPoint x="170" y="233" as="sourcePoint" />
            <mxPoint x="187" y="233" as="targetPoint" />
          </mxGeometry>
        </mxCell>
        <mxCell id="JLO5sq69580xviN0e8U7-24" value="" style="endArrow=classic;html=1;rounded=0;endSize=5;strokeWidth=0;" parent="1" edge="1">
          <mxGeometry width="50" height="50" relative="1" as="geometry">
            <mxPoint x="271" y="216" as="sourcePoint" />
            <mxPoint x="284" y="197" as="targetPoint" />
          </mxGeometry>
        </mxCell>
        <mxCell id="mcuxGvP8ZtwSKULLHQHJ-2" value="" style="endArrow=classic;html=1;rounded=0;endSize=5;strokeWidth=0;" parent="1" edge="1">
          <mxGeometry width="50" height="50" relative="1" as="geometry">
            <mxPoint x="220" y="173" as="sourcePoint" />
            <mxPoint x="180" y="173" as="targetPoint" />
            <Array as="points">
              <mxPoint x="200" y="173" />
            </Array>
          </mxGeometry>
        </mxCell>
        <mxCell id="LWV6n7G7lHrfXqdvU4e6-1" value="&lt;font style=&quot;font-size: 12px;&quot;&gt;1&lt;/font&gt;" style="ellipse;whiteSpace=wrap;html=1;aspect=fixed;fontSize=15;strokeWidth=1;" vertex="1" parent="1">
          <mxGeometry x="270" y="236" width="14" height="14" as="geometry" />
        </mxCell>
        <mxCell id="LWV6n7G7lHrfXqdvU4e6-3" value="&lt;font style=&quot;font-size: 12px;&quot;&gt;2&lt;/font&gt;" style="ellipse;whiteSpace=wrap;html=1;aspect=fixed;fontSize=15;strokeWidth=1;" vertex="1" parent="1">
          <mxGeometry x="310" y="161" width="14" height="14" as="geometry" />
        </mxCell>
        <mxCell id="LWV6n7G7lHrfXqdvU4e6-4" value="&lt;font style=&quot;font-size: 12px;&quot;&gt;3&lt;/font&gt;" style="ellipse;whiteSpace=wrap;html=1;aspect=fixed;fontSize=15;strokeWidth=1;" vertex="1" parent="1">
          <mxGeometry x="90" y="161" width="14" height="14" as="geometry" />
        </mxCell>
        <mxCell id="LWV6n7G7lHrfXqdvU4e6-5" value="&lt;div style=&quot;font-size: 12px;&quot;&gt;&lt;font style=&quot;font-size: 12px;&quot;&gt;4&lt;/font&gt;&lt;/div&gt;" style="ellipse;whiteSpace=wrap;html=1;aspect=fixed;fontSize=15;strokeWidth=1;" vertex="1" parent="1">
          <mxGeometry x="90" y="236" width="14" height="14" as="geometry" />
        </mxCell>
      </root>
    </mxGraphModel>
  </diagram>
</mxfile>
